<svg xmlns="http://www.w3.org/2000/svg" xmlns:xlink="http://www.w3.org/1999/xlink" width="130px" height="37px" viewBox="0 0 130 37"><title>Page 1</title><desc>Created with Sketch.</desc><defs><polygon id="path-1" points="1.9446231e-21 0.212895873 1.9446231e-21 24.860763 14.9367838 24.860763 14.9367838 0.212895873 0 0.212895873"></polygon><polygon id="path-3" points="5.03696909 0.0998139535 0.145754967 0.0998139535 0.145754967 4.94219612 5.03696909 4.94219612 5.03696909 0.0998139535"></polygon></defs><g id="Symbols" stroke="none" stroke-width="1" fill="none" fill-rule="evenodd"><g id="MENU" transform="translate(-37.000000, -39.000000)"><g id="Page-1" transform="translate(37.000000, 39.000000)"><g id="Group-3" transform="translate(0.000000, 9.078481)"><mask id="mask-2" fill="white"><use xlink:href="#path-1"></use></mask><g id="Clip-2"></g><path d="M4.55909713,0.270415504 C6.0651457,-0.1776 12.1760066,2.11754729 12.5235342,2.79415969 C12.8722097,3.47163256 5.48574172,10.7961984 5.48574172,10.7961984 C5.48574172,10.7961984 8.83675717,12.3826093 11.143181,14.3318496 C13.4513267,16.2851054 16.1158962,18.9118186 14.3782583,20.738586 C12.6394724,22.5630589 7.79331347,24.7566713 7.32869978,24.8596403 C6.86552097,24.9623225 -0.751388521,18.0048884 0.0604657837,10.7961984 C0.871172185,3.58636124 3.61322517,0.550353488 4.55909713,0.270415504" id="Fill-1" fill="#C5C6C8" mask="url(#mask-2)"></path></g><path d="M31.3508631,9.46247752 C30.4230706,9.5772062 24.7561611,10.7233457 20.6039095,13.0101752 C16.4528057,15.2947101 13.2197373,17.3486403 13.1040861,18.3823457 C12.9858521,19.4157643 12.0592075,21.012214 15.5258742,21.8138806 C18.9928278,22.6189891 24.0705762,23.1808729 26.7253885,24.1007101 C29.3804879,25.0171054 30.1633576,26.5171829 30.3082804,27.8744233 C30.7726071,32.2163302 21.2989647,36.9001287 21.2989647,36.9001287 C21.2989647,36.9001287 32.9630927,35.3039659 35.3871766,21.7014465 C36.4277506,15.8542992 31.3508631,9.46247752 31.3508631,9.46247752" id="Fill-4" fill="#C5C6C8"></path><g id="Group-8" transform="translate(15.209713, 0.187008)"><mask id="mask-4" fill="white"><use xlink:href="#path-3"></use></mask><g id="Clip-7"></g><path d="M0.145754967,2.52142093 C0.145754967,1.18339767 1.2408543,0.0997852713 2.59136203,0.0997852713 C3.94186976,0.0997852713 5.03696909,1.18339767 5.03696909,2.52142093 C5.03696909,3.8582969 3.94186976,4.94219612 2.59136203,4.94219612 C1.2408543,4.94219612 0.145754967,3.8582969 0.145754967,2.52142093" id="Fill-6" fill="#C90019" mask="url(#mask-4)"></path></g><polygon id="Fill-9" fill="#C90019" points="12.8421634 14.7134946 12.8421634 28.3461302 9.57609272 28.3461302 9.57609272 17.9792465 6.0319426 21.5212078 3.89827815 19.4434713 17.8536203 5.51196744 31.7894481 19.3278822 29.6902208 21.4056186 26.1279912 17.8742698 26.1279912 28.3461302 22.8639294 28.3461302 22.8639294 14.6374868 19.4850773 11.2851147 19.4850773 28.3461302 16.2201545 28.3461302 16.2201545 11.3344481"></polygon><path d="M7.31369095,9.17522558 C7.31369095,7.83720233 8.40993819,6.75244264 9.76044592,6.75244264 C11.1109536,6.75244264 12.206053,7.83720233 12.206053,9.17522558 C12.206053,10.5121016 11.1109536,11.5960008 9.76044592,11.5960008 C8.40993819,11.5960008 7.31369095,10.5121016 7.31369095,9.17522558" id="Fill-11" fill="#C90019"></path><path d="M23.6320773,9.17522558 C23.6320773,7.83720233 24.7271766,6.75244264 26.0785453,6.75244264 C27.4281921,6.75244264 28.5244393,7.83720233 28.5244393,9.17522558 C28.5244393,10.5121016 27.4281921,11.5960008 26.0785453,11.5960008 C24.7271766,11.5960008 23.6320773,10.5121016 23.6320773,9.17522558" id="Fill-13" fill="#C90019"></path><path d="M42.8947483,30.6993302 L42.7027616,30.6993302 C42.6706203,31.0518341 42.6330265,31.3426713 42.591128,31.5752837 C42.5589868,31.7958496 42.4944172,32.044524 42.3982804,32.3236016 C42.6757859,32.578586 43.0181479,32.8111984 43.4224967,33.0182837 C43.8397594,33.2113147 44.3781258,33.3099814 45.0401788,33.3099814 C45.6588985,33.3099814 46.20817,33.2113147 46.6888543,33.0182837 C47.1798698,32.8111984 47.5896711,32.5249504 47.9199801,32.1595395 C48.2634901,31.7829426 48.5186115,31.3426713 48.690223,30.8453225 C48.8704437,30.3456791 48.961702,29.8170667 48.961702,29.2574775 C48.961702,28.5886093 48.831702,28.0522527 48.5777285,27.6492682 C48.3320773,27.2494388 48.0218565,26.9213147 47.6485011,26.6651829 C47.2742848,26.4099116 46.869936,26.1956558 46.4334459,26.0261442 C46.006426,25.8425783 45.605234,25.6423767 45.2321656,25.4235318 C44.8576623,25.1920667 44.5434238,24.913276 44.2871545,24.5831442 C44.0415033,24.2538729 43.9189647,23.8047101 43.9189647,23.2333612 C43.9189647,22.9040899 43.9663157,22.5997721 44.0627395,22.3189736 C44.1700684,22.0401829 44.3126954,21.8021209 44.4960728,21.6082295 C44.6871987,21.4011442 44.9058742,21.2436791 45.1526733,21.1329659 C45.4077947,21.0251209 45.6847263,20.970338 45.9840419,20.970338 C46.2833576,20.970338 46.538479,21.0302837 46.751989,21.1513225 C46.9654989,21.2617488 47.1477285,21.4011442 47.2958079,21.5718031 C47.4565143,21.7421752 47.579053,21.9297566 47.6648587,22.136555 C47.7592737,22.3327411 47.8353223,22.516307 47.8878389,22.6855318 L48.0809735,22.6855318 C48.1452561,22.3327411 48.2098256,22.0401829 48.2718124,21.8107256 C48.3372428,21.5792605 48.417883,21.3584078 48.5131589,21.1513225 C48.1926071,20.8587643 47.8459404,20.6465163 47.472872,20.5122837 C47.0983687,20.3657178 46.656426,20.2937256 46.1438874,20.2937256 C45.6118344,20.2937256 45.1302892,20.3786248 44.7032693,20.5498574 C44.2762494,20.719369 43.9083466,20.957431 43.5984128,21.2617488 C43.300245,21.5663535 43.0718124,21.9297566 42.910819,22.3554 C42.7498256,22.7692837 42.6706203,23.2333612 42.6706203,23.7447643 C42.6706203,24.4609581 42.792872,25.0334543 43.0385232,25.4599581 C43.2947925,25.8847411 43.6101788,26.2383922 43.9835342,26.5194775 C44.3568896,26.7853612 44.7577947,27.0113767 45.1839536,27.1935085 C45.6204437,27.3770744 46.0256534,27.5784233 46.4001567,27.7972682 C46.77466,28.0161132 47.0834459,28.2906016 47.3279492,28.6172915 C47.5853664,28.9465628 47.7119227,29.3905628 47.7119227,29.9501519 C47.7119227,30.3164233 47.6594062,30.6629039 47.5532252,30.9921752 C47.4458962,31.3071054 47.2915033,31.5881907 47.0888985,31.8302682 C46.8957638,32.0620202 46.656426,32.250462 46.3680155,32.3976016 C46.0913709,32.5315473 45.7759845,32.5980899 45.4238653,32.5980899 C45.0817903,32.5980899 44.7730044,32.5421597 44.4960728,32.4351752 C44.2171325,32.3106946 43.9726291,32.1595395 43.7594062,31.9762605 C43.5565143,31.7958496 43.3805982,31.5945008 43.2305099,31.3756558 C43.0930486,31.1441907 42.9805541,30.9170279 42.8947483,30.6993302" id="Fill-15" fill="#868789"></path><path d="M60.0849956,33.071776 C59.9357682,33.0482566 59.7931413,33.0353496 59.6539581,33.0353496 L59.2375563,33.0353496 L58.8053709,33.0353496 C58.6768057,33.0353496 58.5393444,33.0482566 58.3892561,33.071776 C58.3140684,32.7941326 58.2121921,32.4585512 58.0844879,32.0693341 C57.9579316,31.6654891 57.8141567,31.2513186 57.6531634,30.8279698 C57.5030751,30.3894194 57.34983,29.9500085 57.1888366,29.5126054 C57.0281302,29.0622953 56.8789029,28.6355047 56.7417285,28.2348147 C56.3982185,28.223055 56.0506909,28.2161713 55.7000066,28.2161713 C55.3470265,28.2044116 54.9954812,28.1992488 54.643649,28.1992488 C54.3119051,28.1992488 53.9881965,28.2044116 53.6673576,28.2161713 C53.3476667,28.2161713 53.0216623,28.223055 52.6913532,28.2348147 C52.3481302,29.1844814 52.0390574,30.0894039 51.7624128,30.9556054 C51.4854812,31.8068922 51.2777108,32.5121868 51.1379536,33.071776 C50.956585,33.0482566 50.7594327,33.0353496 50.5459227,33.0353496 C50.3335607,33.0353496 50.1352605,33.0482566 49.9538918,33.071776 C50.8174018,30.9426984 51.6613974,28.8242333 52.4832958,26.718962 C53.3049073,24.6154116 54.1308234,22.4722798 54.963053,20.293869 L55.2678212,20.293869 C55.5252384,21.0003109 55.801883,21.765838 56.1000508,22.5956132 C56.3982185,23.4101868 56.7029868,24.236807 57.0120596,25.0763341 C57.3228543,25.9167217 57.6319272,26.7487915 57.940713,27.5785667 C58.2506468,28.4060473 58.5393444,29.1781713 58.8053709,29.8940783 C59.0820155,30.6019543 59.3288146,31.2343961 59.5411766,31.795993 C59.7664525,32.3555822 59.9466733,32.7800783 60.0849956,33.071776 L60.0849956,33.071776 Z M52.9938256,27.3952876 C53.272766,27.3952876 53.5611766,27.4007372 53.8593444,27.4133574 C54.1575121,27.4262643 54.4462097,27.4328612 54.7240022,27.4328612 L55.6205143,27.4328612 C55.91983,27.4199543 56.2179978,27.4070473 56.5161656,27.3952876 L54.7389249,22.7585279 L52.9938256,27.3952876 Z" id="Fill-17" fill="#868789"></path><path d="M61.926777,25.2585233 L61.926777,28.3986473 C61.926777,29.2017481 61.9107064,29.9936628 61.8785651,30.7709496 C61.8570419,31.5493837 61.8303532,32.3180659 61.7982119,33.0718333 C62.3096026,33.048314 62.802053,33.035407 63.2718322,33.035407 L64.7606623,33.035407 L66.2322737,33.035407 C66.7227152,33.035407 67.2128698,33.048314 67.706181,33.0718333 C67.6525166,32.8788023 67.6246799,32.7138798 67.6246799,32.5785 C67.6246799,32.4350891 67.6525166,32.250376 67.706181,32.0318178 C66.9052318,32.1542907 66.1573731,32.2268566 65.4643267,32.250376 C64.7704194,32.2632829 64.0452318,32.2698798 63.286755,32.2698798 C63.2761369,31.3798721 63.2655188,30.3765698 63.2557616,29.2573915 C63.2439956,28.1253062 63.238543,26.7915853 63.238543,25.2585233 C63.238543,24.4565698 63.2503091,23.6718256 63.2718322,22.9042907 C63.3039735,22.1249961 63.3352539,21.333655 63.3662472,20.5305543 C63.2279249,20.5563682 63.0947682,20.5790271 62.967064,20.6036938 C62.8384989,20.616314 62.7107947,20.6217636 62.5822296,20.6217636 C62.4545254,20.6217636 62.3259603,20.616314 62.199117,20.6036938 C62.0705519,20.5790271 61.9373951,20.5563682 61.7982119,20.5305543 C61.8303532,21.333655 61.8570419,22.1249961 61.8785651,22.9042907 C61.9107064,23.6718256 61.926777,24.4565698 61.926777,25.2585233" id="Fill-19" fill="#868789"></path><path d="M69.9287506,25.241314 L69.9287506,28.3802907 C69.9287506,29.1845388 69.9138278,29.975593 69.8813996,30.7540271 C69.8601634,31.5207016 69.8343355,32.2933992 69.8024812,33.0718333 C70.2934967,33.048314 70.7781987,33.035407 71.258883,33.035407 L72.7144238,33.035407 L74.1570508,33.035407 C74.6354393,33.035407 75.1161236,33.048314 75.59566,33.0718333 C75.5646667,32.951655 75.5474481,32.7941899 75.5474481,32.5980039 L75.5474481,32.3235155 C75.5580662,32.2142364 75.5752848,32.1167171 75.59566,32.0318178 C75.3402517,32.0920504 75.0369183,32.1413837 74.6825033,32.1778101 C74.3418631,32.2033372 73.9748212,32.2268566 73.5779338,32.250376 C73.1951082,32.2632829 72.8002296,32.2698798 72.3947329,32.2698798 L71.2738057,32.2698798 C71.2629007,32.0384147 71.2522826,31.6973837 71.2416645,31.2470736 L71.2416645,29.5318798 L71.2416645,28.4362209 L71.2416645,27.7243295 L71.2416645,27.2493527 C71.2522826,27.115407 71.258883,26.9920736 71.258883,26.8839419 C71.4520177,26.8839419 71.7071391,26.8902519 72.027117,26.9008643 C72.3594349,26.9008643 72.7046667,26.909469 73.067404,26.9212287 C73.4404724,26.9212287 73.8086623,26.9329884 74.1711126,26.9565078 C74.5453289,26.9800271 74.8716203,27.0112907 75.1482649,27.0488643 C75.1161236,26.8655853 75.0991921,26.6820194 75.0991921,26.5001744 C75.0991921,26.3048488 75.1161236,26.1161202 75.1482649,25.9351357 C74.9135188,25.9598023 74.6635629,25.9821744 74.3952406,26.0068411 C74.1401192,26.0197481 73.8577351,26.0366705 73.5478013,26.0601899 C73.2390155,26.0742442 72.8969404,26.0860039 72.5224371,26.0977636 C72.1490817,26.1106705 71.7286623,26.1161202 71.258883,26.1161202 C71.258883,25.884655 71.2522826,25.5447713 71.2416645,25.093314 L71.2416645,23.7082519 C71.2416645,23.2570814 71.2482649,22.8561047 71.258883,22.503314 C71.2804062,22.1496628 71.2953289,21.7785155 71.306234,21.3881512 C71.8296777,21.3881512 72.2779338,21.4010581 72.6510022,21.4248643 C73.0243576,21.4374845 73.3655717,21.4558411 73.6755055,21.4793605 C73.9951965,21.5040271 74.2945121,21.5278333 74.5711567,21.5533605 C74.8610022,21.5791744 75.1740927,21.6018333 75.5150199,21.6262132 C75.4828786,21.4429341 75.4679558,21.2616628 75.4679558,21.0772364 C75.4679558,20.8962519 75.4828786,20.7129729 75.5150199,20.5305543 C75.0369183,20.5563682 74.5616865,20.5790271 74.0907594,20.6036938 C73.6218411,20.616314 73.1480442,20.6217636 72.6662119,20.6217636 C72.1878234,20.6217636 71.7071391,20.616314 71.2264547,20.6036938 C70.7569625,20.5790271 70.2825916,20.5563682 69.8024812,20.5305543 C69.8343355,21.3089884 69.8601634,22.0882829 69.8813996,22.8678643 C69.9138278,23.6460116 69.9287506,24.4373527 69.9287506,25.241314" id="Fill-21" fill="#868789"></path><path d="M77.5809868,30.6993302 L77.3881391,30.6993302 C77.3568587,31.0518341 77.3192649,31.3426713 77.2773664,31.5752837 C77.2452252,31.7958496 77.1818035,32.044524 77.0853797,32.3236016 C77.3623113,32.578586 77.7055342,32.8111984 78.1090221,33.0182837 C78.5248499,33.2113147 79.0635033,33.3099814 79.7267042,33.3099814 C80.3465717,33.3099814 80.8946954,33.2113147 81.3750927,33.0182837 C81.8655342,32.8111984 82.2750486,32.5249504 82.6076534,32.1595395 C82.9477196,31.7829426 83.203989,31.3426713 83.3753135,30.8453225 C83.55783,30.3456791 83.6479404,29.8170667 83.6479404,29.2574775 C83.6479404,28.5886093 83.5193753,28.0522527 83.2639669,27.6492682 C83.0194636,27.2494388 82.7083819,26.9213147 82.3350265,26.6651829 C81.9608102,26.4099116 81.5564614,26.1956558 81.1188234,26.0261442 C80.6918035,25.8425783 80.2903245,25.6423767 79.9172561,25.4235318 C79.5441876,25.1920667 79.2308102,24.913276 78.9742539,24.5831442 C78.7288896,24.2538729 78.6054901,23.8047101 78.6054901,23.2333612 C78.6054901,22.9040899 78.6514062,22.5997721 78.7489779,22.3189736 C78.8563068,22.0401829 79.0000817,21.8021209 79.1814503,21.6082295 C79.3734371,21.4011442 79.5935475,21.2436791 79.8389117,21.1329659 C80.0943201,21.0251209 80.3723996,20.970338 80.6705673,20.970338 C80.9707439,20.970338 81.2247174,21.0302837 81.4382274,21.1513225 C81.6528852,21.2617488 81.832819,21.4011442 81.9831943,21.5718031 C82.1439007,21.7421752 82.2664393,21.9297566 82.3502362,22.136555 C82.44666,22.3327411 82.5218477,22.516307 82.5743642,22.6855318 L82.7672119,22.6855318 C82.8306336,22.3327411 82.896064,22.0401829 82.9594857,21.8107256 C83.0237682,21.5792605 83.1018256,21.3584078 83.1996843,21.1513225 C82.8799934,20.8587643 82.5324658,20.6465163 82.1591104,20.5122837 C81.785755,20.3657178 81.3429514,20.2937256 80.8301258,20.2937256 C80.2972119,20.2937256 79.8165276,20.3786248 79.3897947,20.5498574 C78.9624879,20.719369 78.5957329,20.957431 78.2857991,21.2617488 C77.9864834,21.5663535 77.7569029,21.9297566 77.5973444,22.3554 C77.4374989,22.7692837 77.3568587,23.2333612 77.3568587,23.7447643 C77.3568587,24.4609581 77.4793974,25.0334543 77.7247616,25.4599581 C77.9813179,25.8847411 78.2967042,26.2383922 78.6689117,26.5194775 C79.043128,26.7853612 79.4431722,27.0113767 79.8701921,27.1935085 C80.30783,27.3770744 80.7130397,27.5784233 81.0863951,27.7972682 C81.4597506,28.0161132 81.7699713,28.2906016 82.0153355,28.6172915 C82.2707439,28.9465628 82.399596,29.3905628 82.399596,29.9501519 C82.399596,30.3164233 82.3459316,30.6629039 82.2386026,30.9921752 C82.1332826,31.3071054 81.9768808,31.5881907 81.7751369,31.8302682 C81.5820022,32.0620202 81.3429514,32.250462 81.0545408,32.3976016 C80.7764614,32.5315473 80.4610751,32.5980899 80.1103907,32.5980899 C79.7691766,32.5980899 79.4603907,32.5421597 79.1814503,32.4351752 C78.9048057,32.3106946 78.6591545,32.1595395 78.4459316,31.9762605 C78.2418918,31.7958496 78.0668366,31.5945008 77.9178962,31.3756558 C77.7781391,31.1441907 77.6667925,30.9170279 77.5809868,30.6993302" id="Fill-23" fill="#868789"></path><path d="M85.9369161,25.2585233 L85.9369161,28.3986473 C85.9369161,29.2017481 85.9219934,29.9936628 85.8875563,30.7709496 C85.867468,31.5493837 85.8404923,32.3180659 85.808351,33.0718333 C86.0551501,33.048314 86.3145762,33.035407 86.5935166,33.035407 C86.8701611,33.035407 87.131883,33.048314 87.3766733,33.0718333 C87.3465408,32.3180659 87.3123907,31.5493837 87.2799625,30.7709496 C87.2595872,29.9936628 87.2489691,29.2017481 87.2489691,28.3986473 L87.2489691,25.2585233 C87.2489691,24.4565698 87.2595872,23.6718256 87.2799625,22.9042907 C87.3123907,22.1249961 87.3465408,21.333655 87.3766733,20.5305543 C87.2392119,20.5563682 87.1060552,20.5790271 86.9774901,20.6036938 C86.8489249,20.616314 86.7209338,20.6217636 86.5935166,20.6217636 C86.4649514,20.6217636 86.3381082,20.616314 86.209543,20.6036938 C86.0809779,20.5790271 85.9478212,20.5563682 85.808351,20.5305543 C85.8404923,21.333655 85.867468,22.1249961 85.8875563,22.9042907 C85.9219934,23.6718256 85.9369161,24.4565698 85.9369161,25.2585233" id="Fill-25" fill="#868789"></path><path d="M99.2229735,33.071776 C99.0728852,33.0482566 98.9291104,33.0353496 98.7893532,33.0353496 L98.3735254,33.0353496 L97.9399051,33.0353496 C97.8136358,33.0353496 97.6741656,33.0482566 97.5260861,33.071776 C97.4508985,32.7941326 97.35017,32.4585512 97.2213179,32.0693341 C97.0947616,31.6654891 96.9486909,31.2513186 96.7879845,30.8279698 C96.6399051,30.3894194 96.4855121,29.9500085 96.3245188,29.5126054 C96.1649603,29.0622953 96.0157329,28.6355047 95.8762627,28.2348147 C95.5350486,28.223055 95.1898168,28.2161713 94.8368366,28.2161713 C94.4838565,28.2044116 94.1323113,28.1992488 93.7801921,28.1992488 C93.449883,28.1992488 93.1238786,28.2044116 92.8041876,28.2161713 C92.4824879,28.2161713 92.1584923,28.223055 91.8278962,28.2348147 C91.4846733,29.1844814 91.1758874,30.0894039 90.8992428,30.9556054 C90.6223113,31.8068922 90.4133929,32.5121868 90.2747837,33.071776 C90.0925541,33.0482566 89.8951148,33.0353496 89.6827528,33.0353496 C89.4692428,33.0353496 89.2706556,33.0482566 89.0907219,33.071776 C89.9542318,30.9426984 90.7973664,28.8242333 91.6201258,26.718962 C92.4405894,24.6154116 93.2676534,22.4722798 94.099883,20.293869 L94.4046512,20.293869 C94.6609205,21.0003109 94.9375651,21.765838 95.2368808,22.5956132 C95.5350486,23.4101868 95.8398168,24.236807 96.1486026,25.0763341 C96.4576755,25.9167217 96.7687572,26.7487915 97.077543,27.5785667 C97.3866159,28.4060473 97.6741656,29.1781713 97.9399051,29.8940783 C98.2188455,30.6019543 98.4644967,31.2343961 98.6780066,31.795993 C98.9021347,32.3555822 99.0835033,32.7800783 99.2229735,33.071776 L99.2229735,33.071776 Z M92.1326645,27.3952876 C92.409596,27.3952876 92.6968587,27.4007372 92.9950265,27.4133574 C93.2954901,27.4262643 93.5830397,27.4328612 93.8596843,27.4328612 L94.7564834,27.4328612 C95.05666,27.4199543 95.3548278,27.4070473 95.6509868,27.3952876 L93.8746071,22.7585279 L92.1326645,27.3952876 Z" id="Fill-27" fill="#868789"></path><path d="M110.075104,33.309838 L110.299232,33.309838 L110.299232,32.7072256 C110.299232,32.4146674 110.293779,32.0747837 110.282013,31.686714 C110.282013,31.2845899 110.277709,30.8569388 110.265943,30.4066287 C110.265943,29.9457062 110.26049,29.489086 110.249585,29.0384891 L110.249585,27.7414814 L110.249585,26.6458225 C110.249585,26.2930318 110.26049,25.8243651 110.282013,25.2412566 C110.305545,24.6561403 110.325921,24.059838 110.348592,23.4520628 C110.378724,22.8442876 110.405126,22.2717915 110.427797,21.7357217 C110.459077,21.2007992 110.484905,20.7986752 110.507289,20.5304969 C110.293779,20.5918767 110.122168,20.6217062 109.994464,20.6217062 C109.844375,20.6217062 109.664155,20.5918767 109.449497,20.5304969 C109.503448,21.601776 109.535302,22.7456209 109.546208,23.9643264 C109.567444,25.1684039 109.578349,26.4097682 109.578349,27.6878457 L109.578349,30.1708612 C109.087046,29.6089775 108.511086,28.935807 107.84932,28.1433186 C107.198172,27.3405047 106.506274,26.4935202 105.768172,25.605807 C105.043272,24.7051868 104.307179,23.7982566 103.559607,22.8850163 C102.824949,21.9608767 102.129607,21.0966829 101.478746,20.293869 L101.22219,20.293869 C101.244,20.7086132 101.254618,21.3335977 101.254618,22.1731248 C101.265236,23.0137992 101.27155,24.0171016 101.27155,25.1867605 C101.27155,25.5877372 101.265236,26.0455047 101.254618,26.5557605 C101.244,27.0660163 101.22879,27.5891791 101.207554,28.1252488 C101.196649,28.6613186 101.175126,29.1962411 101.142985,29.7311636 C101.121748,30.2672333 101.099077,30.7668767 101.078415,31.2277992 C101.057179,31.6783961 101.031351,32.0693341 100.997201,32.3974581 C100.976826,32.7244349 100.95645,32.9515977 100.935788,33.071776 C101.114861,33.0482566 101.313735,33.0353496 101.526958,33.0353496 C101.72985,33.0353496 101.917532,33.0482566 102.086848,33.071776 C102.077377,32.9754039 102.06762,32.7941326 102.054706,32.5250938 C102.045236,32.2440085 102.03347,31.9224814 102.023426,31.5582178 C102.01166,31.1913729 102.001042,30.7967062 101.990424,30.3702023 C101.979806,29.9457062 101.970049,29.5255124 101.960578,29.1113419 C101.960578,28.697745 101.954839,28.3010705 101.943073,27.9239 L101.943073,26.974807 C101.943073,25.9898612 101.949673,25.2102798 101.960578,24.638931 C101.970049,24.0661481 101.979806,23.6098147 101.990424,23.269931 C103.378238,24.9475512 104.765479,26.6415202 106.153294,28.3440938 C107.540247,30.0357682 108.846848,31.6907295 110.075104,33.309838" id="Fill-29" fill="#868789"></path><path d="M122.063887,33.071776 C121.914086,33.0482566 121.770311,33.0353496 121.630554,33.0353496 L121.216735,33.0353496 L120.783115,33.0353496 C120.656845,33.0353496 120.517088,33.0482566 120.367,33.071776 C120.291812,32.7941326 120.191371,32.4585512 120.062232,32.0693341 C119.935962,31.6654891 119.79104,31.2513186 119.631194,30.8279698 C119.481106,30.3894194 119.326713,29.9500085 119.167728,29.5126054 C119.007022,29.0622953 118.856647,28.6355047 118.719472,28.2348147 C118.37711,28.223055 118.030731,28.2161713 117.678038,28.2161713 C117.327066,28.2044116 116.973225,28.1992488 116.621393,28.1992488 C116.292232,28.1992488 115.964792,28.2044116 115.645389,28.2161713 C115.32455,28.2161713 114.999693,28.223055 114.669097,28.2348147 C114.327022,29.1844814 114.017949,30.0894039 113.741305,30.9556054 C113.463225,31.8068922 113.255455,32.5121868 113.116845,33.071776 C112.934616,33.0482566 112.737177,33.0353496 112.522806,33.0353496 C112.311592,33.0353496 112.113004,33.0482566 111.931636,33.071776 C112.795146,30.9426984 113.639428,28.8242333 114.46104,26.718962 C115.282651,24.6154116 116.109715,22.4722798 116.940797,20.293869 L117.245565,20.293869 C117.502121,21.0003109 117.779627,21.765838 118.077795,22.5956132 C118.37711,23.4101868 118.681018,24.236807 118.990951,25.0763341 C119.299737,25.9167217 119.609671,26.7487915 119.918457,27.5785667 C120.228391,28.4060473 120.517088,29.1781713 120.783115,29.8940783 C121.061194,30.6019543 121.306558,31.2343961 121.519208,31.795993 C121.744483,32.3555822 121.924704,32.7800783 122.063887,33.071776 L122.063887,33.071776 Z M114.973865,27.3952876 C115.25051,27.3952876 115.53806,27.4007372 115.836227,27.4133574 C116.136691,27.4262643 116.423954,27.4328612 116.700885,27.4328612 L117.597684,27.4328612 C117.897574,27.4199543 118.196029,27.4070473 118.494483,27.3952876 L116.716669,22.7585279 L114.973865,27.3952876 Z" id="Fill-31" fill="#868789"></path><path d="M123.552861,30.6993302 L123.360874,30.6993302 C123.328733,31.0518341 123.291139,31.3426713 123.248093,31.5752837 C123.214804,31.7958496 123.15253,32.044524 123.056393,32.3236016 C123.333898,32.578586 123.675113,32.8111984 124.080609,33.0182837 C124.496724,33.2113147 125.035377,33.3099814 125.695996,33.3099814 C126.317011,33.3099814 126.865135,33.2113147 127.345819,33.0182837 C127.837121,32.8111984 128.246636,32.5249504 128.579528,32.1595395 C128.919307,31.7829426 129.175863,31.3426713 129.34604,30.8453225 C129.527408,30.3456791 129.619815,29.8170667 129.619815,29.2574775 C129.619815,28.5886093 129.490962,28.0522527 129.234693,27.6492682 C128.99019,27.2494388 128.679969,26.9213147 128.306614,26.6651829 C127.932684,26.4099116 127.528336,26.1956558 127.090411,26.0261442 C126.663678,25.8425783 126.262199,25.6423767 125.88913,25.4235318 C125.515775,25.1920667 125.201536,24.913276 124.945267,24.5831442 C124.699616,24.2538729 124.575929,23.8047101 124.575929,23.2333612 C124.575929,22.9040899 124.625289,22.5997721 124.719704,22.3189736 C124.828181,22.0401829 124.970808,21.8021209 125.153038,21.6082295 C125.344163,21.4011442 125.563126,21.2436791 125.809638,21.1329659 C126.066194,21.0251209 126.342839,20.970338 126.642155,20.970338 C126.940322,20.970338 127.196592,21.0302837 127.409241,21.1513225 C127.623611,21.2617488 127.804693,21.4011442 127.955068,21.5718031 C128.113766,21.7421752 128.237166,21.9297566 128.324119,22.136555 C128.418247,22.3327411 128.493435,22.516307 128.545951,22.6855318 L128.737938,22.6855318 C128.802508,22.3327411 128.86679,22.0401829 128.931073,21.8107256 C128.995642,21.5792605 129.074848,21.3584078 129.171272,21.1513225 C128.851868,20.8587643 128.50434,20.6465163 128.129837,20.5122837 C127.75562,20.3657178 127.313391,20.2937256 126.802861,20.2937256 C126.268799,20.2937256 125.788115,20.3786248 125.360234,20.5498574 C124.934362,20.719369 124.566459,20.957431 124.256525,21.2617488 C123.95721,21.5663535 123.728777,21.9297566 123.568071,22.3554 C123.407938,22.7692837 123.328733,23.2333612 123.328733,23.7447643 C123.328733,24.4609581 123.449837,25.0334543 123.696636,25.4599581 C123.952044,25.8847411 124.267143,26.2383922 124.640499,26.5194775 C125.015002,26.7853612 125.414759,27.0113767 125.842066,27.1935085 C126.278556,27.3770744 126.684914,27.5784233 127.057121,27.7972682 C127.431625,28.0161132 127.740411,28.2906016 127.98721,28.6172915 C128.242618,28.9465628 128.370035,29.3905628 128.370035,29.9501519 C128.370035,30.3164233 128.317806,30.6629039 128.21019,30.9921752 C128.104009,31.3071054 127.948468,31.5881907 127.745863,31.8302682 C127.554737,32.0620202 127.313391,32.250462 127.026128,32.3976016 C126.748336,32.5315473 126.43381,32.5980899 126.081978,32.5980899 C125.739903,32.5980899 125.429969,32.5421597 125.153038,32.4351752 C124.875245,32.3106946 124.629881,32.1595395 124.417519,31.9762605 C124.213766,31.7958496 124.037563,31.5945008 123.887475,31.3756558 C123.751161,31.1441907 123.638667,30.9170279 123.552861,30.6993302" id="Fill-33" fill="#868789"></path><path d="M47.4277881,8.33113798 C48.3466843,10.0770217 49.307766,11.8685101 50.311894,13.7056031 C50.441894,13.458076 50.631298,13.1029907 50.8789581,12.6400605 C51.1263311,12.1779907 51.4130199,11.6470837 51.7393113,11.0476264 C52.0650287,10.4484558 52.4137042,9.80023876 52.7853377,9.10297519 C53.1569713,8.40628527 53.5346313,7.69926977 53.9194658,6.98278915 C54.3037263,6.26630853 54.685117,5.56302171 55.063064,4.87206822 C55.441011,4.18168837 55.7931302,3.53691318 56.1191347,2.93716899 L56.3731082,2.93716899 C56.516596,4.18828527 56.6500397,5.39666512 56.7740132,6.56259535 C56.8979868,7.72852558 57.02483,8.87523876 57.155404,10.0021612 C57.2856909,11.1290837 57.4162649,12.2430992 57.5465519,13.3439209 C57.6765519,14.4447426 57.8203267,15.5360992 57.9767285,16.6174171 C57.8203267,16.5910295 57.6670817,16.5781225 57.5172804,16.5781225 L57.0575453,16.5781225 L56.5980971,16.5781225 C56.4482958,16.5781225 56.2950508,16.5910295 56.138649,16.6174171 C55.9951611,14.8847271 55.8516733,13.2039519 55.7084724,11.5750915 C55.5646976,9.94680465 55.3890684,8.28553333 55.1807241,6.59213798 L55.1414084,6.59213798 C54.2420265,8.23333178 53.3587152,9.86534729 52.4920486,11.487324 C51.6250949,13.1093008 50.8006137,14.8064248 50.0186049,16.5781225 L49.8426887,16.5781225 C49.0603929,14.9366419 48.2422252,13.2917194 47.3887594,11.6436419 C46.5347196,9.99556434 45.6778102,8.31163411 44.817457,6.59213798 L44.7784283,6.59213798 C44.686883,7.39982791 44.5858675,8.27606822 44.4750949,9.22028527 C44.3643223,10.165076 44.2633068,11.096386 44.1723355,12.0147891 C44.0807903,12.9334791 44.0024459,13.7999674 43.9375894,14.6142543 C43.8721589,15.4285411 43.8397307,16.096262 43.8397307,16.6174171 C43.6310993,16.5910295 43.4029536,16.5781225 43.1552936,16.5781225 C42.9076336,16.5781225 42.6794879,16.5910295 42.4711435,16.6174171 C42.6401722,15.5619132 42.8163753,14.4478977 42.9988918,13.2753705 C43.1814084,12.1028434 43.3573245,10.9240062 43.5269272,9.73828527 C43.6962428,8.55256434 43.8526446,7.38319225 43.9961325,6.23045581 C44.1396203,5.07743256 44.2633068,3.98005271 44.367766,2.93716899 L44.7000839,2.93716899 C45.5994658,4.78774264 46.5086049,6.58554109 47.4277881,8.33113798" id="Fill-35" fill="#868789"></path><path d="M60.782404,5.7222938 C60.7496887,4.89481318 60.7141038,4.05127054 60.6747881,3.19137907 C60.8441038,3.21776667 61.0073929,3.24013876 61.1637947,3.25992946 C61.3201965,3.27914651 61.4765982,3.28918527 61.633,3.28918527 C61.7894018,3.28918527 61.9458035,3.27914651 62.1022053,3.25992946 C62.258894,3.24013876 62.4213223,3.21776667 62.5912119,3.19137907 C62.5521832,4.05127054 62.5160243,4.89481318 62.483596,5.7222938 C62.4508808,6.54977442 62.4345232,7.39303023 62.4345232,8.25292171 L62.4345232,11.6144721 C62.4345232,12.4743636 62.4508808,13.3213481 62.483596,14.1548519 C62.5160243,14.9889295 62.5521832,15.8095264 62.5912119,16.6172163 C62.2910353,16.5911155 61.9719183,16.5782085 61.633,16.5782085 C61.2937947,16.5782085 60.9746777,16.5911155 60.6747881,16.6172163 C60.7141038,15.8095264 60.7496887,14.9889295 60.782404,14.1548519 C60.8148322,13.3213481 60.8311898,12.4743636 60.8311898,11.6144721 L60.8311898,8.25292171 C60.8311898,7.39303023 60.8148322,6.54977442 60.782404,5.7222938" id="Fill-37" fill="#868789"></path><path d="M66.2570684,14.7899612 C66.4332715,15.0311783 66.6482163,15.2494496 66.9027638,15.4444884 C67.1567373,15.6401008 67.4528962,15.7998605 67.7921015,15.9234806 C68.1310199,16.0473876 68.5086799,16.1093411 68.9259426,16.1093411 C69.3564062,16.1093411 69.7443974,16.0341938 70.0896291,15.884186 C70.4351479,15.7347519 70.7284371,15.5325426 70.9692097,15.2787054 C71.2108433,15.0245814 71.3965166,14.7248527 71.5268035,14.3795194 C71.6573775,14.0344729 71.721947,13.6664806 71.721947,13.2755426 C71.721947,12.6763721 71.568989,12.2005349 71.2627859,11.8488915 C70.9562958,11.4972481 70.5751921,11.2041163 70.1191876,10.9694961 C69.6623223,10.734876 69.1710199,10.5200465 68.6424106,10.3244341 C68.1143753,10.1291085 67.6222119,9.88473643 67.1662075,9.59160465 C66.7104901,9.29847287 66.3288124,8.92417054 66.0223223,8.46812403 C65.7161192,8.01207752 65.5628742,7.39971318 65.5628742,6.63103101 C65.5628742,6.08377519 65.6607329,5.58527907 65.8561634,5.13611628 C66.0521678,4.68666667 66.3351258,4.29888372 66.7070464,3.97334109 C67.0789669,3.64751163 67.5246402,3.39367442 68.046362,3.21096899 C68.566936,3.02855039 69.1543753,2.93734109 69.8058102,2.93734109 C70.4314172,2.93734109 70.9726534,3.01248837 71.4286578,3.1622093 C71.8852362,3.31193023 72.3085254,3.54339535 72.6999603,3.85603101 C72.5825872,4.07774419 72.4847285,4.31236434 72.4066711,4.55931783 C72.3289007,4.80684496 72.2496954,5.11976744 72.1719249,5.49751163 L71.9371788,5.49751163 C71.8717483,5.31509302 71.7842208,5.11632558 71.6737351,4.9012093 C71.5626755,4.68666667 71.4123002,4.48818605 71.2237572,4.3051938 C71.0349272,4.12306202 70.8099382,3.97018605 70.5490773,3.84627907 C70.2882163,3.72265891 69.9756998,3.6604186 69.6103797,3.6604186 C69.2456336,3.6604186 68.909585,3.71921705 68.6036689,3.83624031 C68.2974658,3.95355039 68.0297174,4.11962016 67.8018587,4.33473643 C67.573713,4.54956589 67.3975099,4.80684496 67.2738234,5.10657364 C67.1501369,5.40658915 67.0884371,5.73213178 67.0884371,6.08377519 C67.0884371,6.69642636 67.2413951,7.178 67.5481722,7.52993023 C67.8538013,7.88157364 68.2351921,8.17814729 68.6911965,8.41907752 C69.1477748,8.66029457 69.6405121,8.87512403 70.1679735,9.06413953 C70.6960088,9.25315504 71.1873113,9.48404651 71.6441766,9.75767442 C72.100181,10.0313023 72.4818587,10.3832326 72.7880618,10.8131783 C73.0939779,11.243124 73.2475099,11.8164806 73.2475099,12.5326744 C73.2475099,13.1324186 73.140181,13.6988915 72.9249492,14.2332403 C72.7097174,14.7673023 72.3969139,15.2331008 71.9862517,15.6303488 C71.5758764,16.0278837 71.0736689,16.3339225 70.4804901,16.5487519 C69.8873113,16.7638682 69.2129183,16.8711395 68.4570243,16.8711395 C67.6489007,16.8711395 66.9931611,16.7638682 66.4921015,16.5487519 C65.989894,16.3339225 65.5694746,16.0895504 65.2305563,15.8159225 C65.3482163,15.5164806 65.4291435,15.2462946 65.4750596,15.0050775 C65.5206887,14.7641473 65.5628742,14.4549535 65.6021898,14.0766357 L65.836649,14.0766357 C65.9411082,14.3112558 66.0811523,14.549031 66.2570684,14.7899612" id="Fill-39" fill="#868789"></path><path d="M75.9947572,5.7222938 C75.9620419,4.89481318 75.926457,4.05127054 75.8874283,3.19137907 C76.05617,3.21776667 76.2197461,3.24013876 76.3758609,3.25992946 C76.5322627,3.27914651 76.6892384,3.28918527 76.8450662,3.28918527 C77.001468,3.28918527 77.1584437,3.27914651 77.3145585,3.25992946 C77.4709603,3.24013876 77.6339625,3.21776667 77.8035651,3.19137907 C77.7642494,4.05127054 77.7280905,4.89481318 77.6959492,5.7222938 C77.663234,6.54977442 77.6468764,7.39303023 77.6468764,8.25292171 L77.6468764,11.6144721 C77.6468764,12.4743636 77.663234,13.3213481 77.6959492,14.1548519 C77.7280905,14.9889295 77.7642494,15.8095264 77.8035651,16.6172163 C77.5033885,16.5911155 77.1839845,16.5782085 76.8450662,16.5782085 C76.5061479,16.5782085 76.1867439,16.5911155 75.8874283,16.6172163 C75.926457,15.8095264 75.9620419,14.9889295 75.9947572,14.1548519 C76.0271854,13.3213481 76.04383,12.4743636 76.04383,11.6144721 L76.04383,8.25292171 C76.04383,7.39303023 76.0271854,6.54977442 75.9947572,5.7222938" id="Fill-41" fill="#868789"></path><path d="M92.7029713,7.12938372 C92.4291965,6.34119767 92.0480927,5.68982558 91.5590861,5.17498062 C91.0706534,4.6607093 90.496415,4.27952326 89.8386667,4.03199612 C89.1806313,3.78446899 88.4660618,3.66056202 87.6975408,3.66056202 C86.9413598,3.66056202 86.2336777,3.78446899 85.5762163,4.03199612 C84.9170331,4.27952326 84.3436556,4.6607093 83.855223,5.17498062 C83.3665033,5.68982558 82.9851126,6.34119767 82.7113377,7.12938372 C82.4378499,7.91785659 82.3003885,8.85232171 82.3003885,9.93363953 C82.3003885,11.0149574 82.4378499,11.9499961 82.7113377,12.7381822 C82.9851126,13.5263682 83.3665033,14.1777403 83.855223,14.6922984 C84.3436556,15.2071434 84.9170331,15.5883295 85.5762163,15.8355698 C86.2336777,16.0830969 86.9413598,16.2067171 87.6975408,16.2067171 C88.4660618,16.2067171 89.1806313,16.0830969 89.8386667,15.8355698 C90.496415,15.5883295 91.0706534,15.2071434 91.5590861,14.6922984 C92.0480927,14.1777403 92.4291965,13.5263682 92.7029713,12.7381822 C92.9767461,11.9499961 93.1139205,11.0149574 93.1139205,9.93363953 C93.1139205,8.85232171 92.9767461,7.91785659 92.7029713,7.12938372 M80.9223311,6.97306589 C81.2804768,6.10686434 81.7821104,5.37374806 82.4272318,4.77457752 C83.0732141,4.17512016 83.8454658,3.71907364 84.7448477,3.40672481 C85.6445166,3.09380233 86.6285563,2.93719767 87.6975408,2.93719767 C88.7791523,2.93719767 89.7700795,3.09380233 90.6691744,3.40672481 C91.5688433,3.71907364 92.3413819,4.17512016 92.9867903,4.77457752 C93.6316247,5.37374806 94.1335453,6.10686434 94.4922649,6.97306589 C94.8501236,7.83955426 95.0297704,8.82650775 95.0297704,9.93363953 C95.0297704,11.041345 94.8501236,12.0282984 94.4922649,12.8945 C94.1335453,13.7609884 93.6316247,14.4938178 92.9867903,15.0929884 C92.3413819,15.6921589 91.5688433,16.1384535 90.6691744,16.4315853 C89.7700795,16.7247171 88.7791523,16.8712829 87.6975408,16.8712829 C86.6285563,16.8712829 85.6445166,16.7247171 84.7448477,16.4315853 C83.8454658,16.1384535 83.0732141,15.6921589 82.4272318,15.0929884 C81.7821104,14.4938178 81.2804768,13.7609884 80.9223311,12.8945 C80.5636115,12.0282984 80.3842517,11.041345 80.3842517,9.93363953 C80.3842517,8.82650775 80.5636115,7.83955426 80.9223311,6.97306589" id="Fill-43" fill="#868789"></path><path d="M103.984704,11.5458357 C102.290113,9.72853333 100.595521,7.92069612 98.9009294,6.12289767 C98.8880155,6.48773488 98.8748146,6.97619225 98.8619007,7.58855659 C98.8486998,8.20092093 98.8423863,9.03471163 98.8423863,10.0899287 C98.8423863,10.3635566 98.8452561,10.7025798 98.8518565,11.106138 C98.8590309,11.5099829 98.8653444,11.9339054 98.8722318,12.3764713 C98.8782583,12.819324 98.8880155,13.2690605 98.9009294,13.7248202 C98.9141302,14.1811535 98.9273311,14.6042155 98.940532,14.9951535 C98.952872,15.3860915 98.9660728,15.7279829 98.9789868,16.0214016 C98.9924746,16.3142465 99.0051015,16.513014 99.0183024,16.6174171 C98.810245,16.5910295 98.5815254,16.5781225 98.3338653,16.5781225 C98.0730044,16.5781225 97.8322318,16.5910295 97.6106865,16.6174171 C97.6368013,16.4872 97.6657859,16.2459829 97.6985011,15.8943395 C97.7309294,15.5424093 97.7604879,15.1222155 97.7863157,14.6334713 C97.8127174,14.1453008 97.841989,13.6143938 97.8749912,13.0407504 C97.9065585,12.4676806 97.9335342,11.8946109 97.9527616,11.3212543 C97.9722759,10.7481845 97.9886336,10.1877349 98.0018344,9.64047907 C98.0144614,9.09351008 98.0213488,8.60476589 98.0213488,8.17482016 C98.0213488,6.9239907 98.0179051,5.84926977 98.0115916,4.95037054 C98.0047042,4.05147132 97.9886336,3.38059535 97.9625188,2.93716899 L98.2750353,2.93716899 C99.070245,3.79734729 99.921128,4.71919225 100.826823,5.70270388 C101.733093,6.68650233 102.632188,7.65682016 103.525543,8.61451783 C104.418325,9.57192868 105.265477,10.4777116 106.067287,11.3310062 C106.869097,12.1843008 107.569318,12.9108202 108.169384,13.5099907 L108.169384,10.852014 C108.169384,9.48416124 108.159627,8.15216124 108.139826,6.85572713 C108.120311,5.55957984 108.078126,4.3380062 108.012982,3.19157984 C108.273269,3.25697519 108.495102,3.28909922 108.677905,3.28909922 C108.83402,3.28909922 109.042938,3.25697519 109.303512,3.19157984 C109.27711,3.47811473 109.247839,3.90834729 109.215411,4.48141705 C109.182695,5.05477364 109.149693,5.66685116 109.118126,6.31822326 C109.08455,6.96988217 109.055852,7.60806047 109.02945,8.23333178 C109.003336,8.8586031 108.990135,9.36025426 108.990135,9.73828527 L108.990135,10.9108124 C108.990135,11.3539519 108.993865,11.8163085 109.000753,12.2984558 C109.006779,12.7803163 109.012806,13.2656186 109.01998,13.7543628 C109.026007,14.2428202 109.03232,14.6991535 109.039208,15.1222155 C109.046382,15.5458512 109.048965,15.9135566 109.048965,16.2261922 L109.048965,16.8712543 L108.775477,16.8712543 C107.276316,15.1385643 105.679583,13.3634248 103.984704,11.5458357" id="Fill-45" fill="#868789"></path><path d="M112.93057,5.69289457 C112.89728,4.85910388 112.862269,4.02531318 112.822667,3.19152248 C113.409532,3.21762326 113.99238,3.24028217 114.572932,3.26007287 C115.152336,3.27928992 115.736331,3.28932868 116.322623,3.28932868 C116.909488,3.28932868 117.489179,3.27928992 118.06313,3.26007287 C118.636508,3.24028217 119.216773,3.21762326 119.803351,3.19152248 C119.764035,3.38684806 119.744808,3.58246047 119.744808,3.77749922 C119.744808,3.97311163 119.764035,4.16872403 119.803351,4.36404961 C119.385801,4.33794884 119.004411,4.31242171 118.659466,4.28574729 C118.31366,4.25993333 117.94834,4.23383256 117.564079,4.20773178 C117.180106,4.18163101 116.759687,4.15868527 116.303395,4.1391814 C115.846817,4.11967752 115.299554,4.10992558 114.661033,4.10992558 C114.647258,4.52696434 114.631475,4.9242124 114.61196,5.30195659 C114.592446,5.68027442 114.582402,6.10993333 114.582402,6.59208062 C114.582402,7.10004186 114.585845,7.59509612 114.592446,8.07724341 C114.599046,8.5593907 114.60249,8.92422791 114.60249,9.17146822 C115.175868,9.17146822 115.690702,9.16515814 116.146706,9.15225116 C116.602998,9.13905736 117.019687,9.12270853 117.398208,9.10320465 C117.776155,9.08341395 118.12483,9.0641969 118.444521,9.0444062 C118.763351,9.02490233 119.066397,9.00253023 119.35366,8.97614264 C119.314057,9.17146822 119.29483,9.37367752 119.29483,9.58191008 C119.29483,9.77752248 119.314057,9.97284806 119.35366,10.1681736 C119.014455,10.1291659 118.620437,10.096755 118.170746,10.0703674 C117.720768,10.0442667 117.27079,10.0284915 116.821673,10.0216078 C116.371695,10.0150109 115.948119,10.0087008 115.550658,10.0021039 C115.152336,9.99550698 114.836949,9.99235194 114.60249,9.99235194 C114.60249,10.1093752 114.599046,10.2364372 114.592446,10.373538 C114.585845,10.5100651 114.582402,10.6830186 114.582402,10.8912512 L114.582402,11.6536233 L114.582402,12.8258636 C114.582402,13.568445 114.585845,14.1810961 114.592446,14.6629566 C114.599046,15.1451039 114.608804,15.5099411 114.622004,15.7574682 L115.990305,15.7574682 C116.485912,15.7574682 116.971475,15.7477163 117.446706,15.7279256 C117.922799,15.7084217 118.372203,15.6826078 118.796353,15.6499101 C119.219929,15.6174992 119.588119,15.5687395 119.901497,15.5033442 C119.874521,15.5945535 119.858737,15.6958016 119.852424,15.8062279 C119.845823,15.9169411 119.842667,16.0181891 119.842667,16.1091116 C119.842667,16.317631 119.861894,16.4871426 119.901497,16.6173597 C119.314057,16.5909721 118.73121,16.5783519 118.150371,16.5783519 L116.381166,16.5783519 L114.60249,16.5783519 C114.015051,16.5783519 113.422733,16.5909721 112.822667,16.6173597 C112.862269,15.783569 112.89728,14.9532202 112.93057,14.1254527 C112.962711,13.2985457 112.979642,12.4547163 112.979642,11.5948248 L112.979642,8.23327442 C112.979642,7.37366977 112.962711,6.52697209 112.93057,5.69289457" id="Fill-47" fill="#868789"></path><path d="M122.745742,14.7899612 C122.922232,15.0311783 123.13689,15.2494496 123.391437,15.4444884 C123.645698,15.6401008 123.94157,15.7998605 124.281349,15.9234806 C124.619693,16.0473876 124.99764,16.1093411 125.414903,16.1093411 C125.845653,16.1093411 126.233071,16.0341938 126.578015,15.884186 C126.924108,15.7347519 127.217397,15.5325426 127.45817,15.2787054 C127.699517,15.0245814 127.88519,14.7248527 128.015764,14.3795194 C128.146051,14.0344729 128.211194,13.6664806 128.211194,13.2755426 C128.211194,12.6763721 128.057949,12.2005349 127.751172,11.8488915 C127.444969,11.4972481 127.064152,11.2041163 126.607861,10.9694961 C126.151283,10.734876 125.659693,10.5200465 125.131371,10.3244341 C124.603623,10.1291085 124.111459,9.88473643 123.655455,9.59160465 C123.198876,9.29847287 122.817486,8.92417054 122.511283,8.46812403 C122.204506,8.01207752 122.052121,7.39971318 122.052121,6.63103101 C122.052121,6.08377519 122.149693,5.58527907 122.345411,5.13611628 C122.540841,4.68666667 122.824086,4.29888372 123.195433,3.97334109 C123.567353,3.64751163 124.013313,3.39367442 124.535035,3.21096899 C125.056183,3.02855039 125.643336,2.93734109 126.29477,2.93734109 C126.920664,2.93734109 127.461901,3.01248837 127.917618,3.1622093 C128.373623,3.31193023 128.797486,3.54339535 129.188634,3.85603101 C129.07126,4.07774419 128.973402,4.31236434 128.895631,4.55931783 C128.817287,4.80684496 128.738943,5.11976744 128.660885,5.49751163 L128.426139,5.49751163 C128.360709,5.31509302 128.273181,5.11632558 128.162695,4.9012093 C128.051349,4.68666667 127.90126,4.48818605 127.713004,4.3051938 C127.5236,4.12306202 127.298611,3.97018605 127.038038,3.84627907 C126.777177,3.72265891 126.46466,3.6604186 126.099627,3.6604186 C125.734307,3.6604186 125.398545,3.71921705 125.092629,3.83624031 C124.786139,3.95355039 124.518391,4.11962016 124.290819,4.33473643 C124.062386,4.54956589 123.88647,4.80684496 123.762784,5.10657364 C123.638523,5.40658915 123.57711,5.73213178 123.57711,6.08377519 C123.57711,6.69642636 123.730642,7.178 124.036845,7.52993023 C124.342475,7.88157364 124.724439,8.17814729 125.180157,8.41907752 C125.636161,8.66029457 126.128898,8.87512403 126.656934,9.06413953 C127.184969,9.25315504 127.676272,9.48404651 128.13285,9.75767442 C128.589141,10.0313023 128.970532,10.3832326 129.277309,10.8131783 C129.582938,11.243124 129.73647,11.8164806 129.73647,12.5326744 C129.73647,13.1324186 129.628854,13.6988915 129.413623,14.2332403 C129.198104,14.7673023 128.885874,15.2331008 128.475212,15.6303488 C128.06455,16.0278837 127.562342,16.3339225 126.969737,16.5487519 C126.375985,16.7638682 125.701879,16.8711395 124.945698,16.8711395 C124.137574,16.8711395 123.482121,16.7638682 122.981062,16.5487519 C122.478567,16.3339225 122.058435,16.0895504 121.719804,15.8159225 C121.83689,15.5164806 121.918391,15.2462946 121.96402,15.0050775 C122.009649,14.7641473 122.052121,14.4549535 122.09115,14.0766357 L122.325322,14.0766357 C122.429494,14.3112558 122.569826,14.549031 122.745742,14.7899612" id="Fill-49" fill="#868789"></path></g></g></g></svg>