<?xml version="1.0" standalone="no"?>
<!DOCTYPE svg PUBLIC "-//W3C//DTD SVG 20010904//EN"
 "http://www.w3.org/TR/2001/REC-SVG-20010904/DTD/svg10.dtd">
<svg version="1.0" xmlns="http://www.w3.org/2000/svg"
 width="512.000000pt" height="512.000000pt" viewBox="0 0 512.000000 512.000000"
 preserveAspectRatio="xMidYMid meet">

<g transform="translate(0.000000,512.000000) scale(0.100000,-0.100000)"
fill="#000000" stroke="none">
<path d="M2075 4937 c-26 -14 -48 -37 -62 -67 -21 -41 -23 -58 -23 -210 l0
-165 -98 -33 c-225 -77 -486 -230 -672 -395 -255 -225 -459 -531 -571 -854
l-32 -93 -172 0 c-162 0 -174 -1 -205 -23 -19 -12 -43 -38 -54 -57 -20 -34
-21 -49 -21 -485 0 -432 1 -451 20 -484 42 -71 56 -76 255 -79 l178 -3 32 -92
c183 -531 592 -973 1105 -1193 66 -28 146 -60 178 -70 l57 -18 0 -160 c0 -183
12 -224 71 -267 l34 -24 455 -2 455 -3 40 23 c26 14 48 37 63 67 20 40 22 58
22 205 l0 160 98 34 c412 143 771 423 1015 790 83 126 179 319 225 453 l34 97
178 3 c199 3 213 8 255 79 19 33 20 52 20 484 0 436 -1 451 -21 485 -11 19
-35 45 -54 57 -31 22 -43 23 -205 23 l-172 0 -32 93 c-201 581 -671 1054
-1243 1249 l-98 33 0 165 c0 152 -2 169 -22 210 -15 30 -37 53 -63 67 -40 23
-43 23 -485 23 -442 0 -445 0 -485 -23z m-85 -881 c0 -52 5 -107 11 -123 15
-42 68 -92 109 -103 44 -12 840 -13 894 -1 45 11 93 53 112 98 9 20 14 69 14
129 l0 96 27 -7 c15 -3 73 -28 130 -55 349 -165 637 -454 806 -810 84 -176 89
-160 -46 -160 -125 0 -155 -11 -201 -73 -21 -28 -21 -37 -21 -492 0 -455 0
-464 21 -492 46 -62 76 -73 201 -73 136 0 133 18 32 -185 -87 -177 -175 -300
-314 -441 -159 -161 -327 -278 -520 -361 -125 -55 -115 -60 -115 56 0 55 -5
112 -11 128 -15 42 -68 92 -109 103 -47 13 -853 13 -900 0 -41 -11 -94 -61
-109 -103 -6 -16 -11 -73 -11 -128 0 -116 10 -111 -115 -56 -192 83 -359 199
-521 361 -139 140 -227 263 -314 441 -100 204 -103 185 33 185 125 0 155 11
201 73 21 28 21 37 21 492 0 455 0 464 -21 492 -46 62 -76 73 -201 73 -132 0
-125 -11 -69 115 145 326 376 590 681 776 72 44 270 138 293 139 9 0 12 -25
12 -94z"/>
</g>
</svg>
