<?xml version="1.0" standalone="no"?>
<!DOCTYPE svg PUBLIC "-//W3C//DTD SVG 20010904//EN"
 "http://www.w3.org/TR/2001/REC-SVG-20010904/DTD/svg10.dtd">
<svg version="1.0" xmlns="http://www.w3.org/2000/svg"
 width="512.000000pt" height="512.000000pt" viewBox="0 0 512.000000 512.000000"
 preserveAspectRatio="xMidYMid meet">

<g transform="translate(0.000000,512.000000) scale(0.100000,-0.100000)"
fill="#000000" stroke="none">
<path d="M64 4200 c-12 -4 -31 -21 -43 -36 l-21 -27 0 -1578 0 -1579 29 -32
29 -33 1036 -3 c1147 -3 1093 -5 1120 60 18 42 10 81 -21 113 l-26 25 -983 0
-984 0 0 240 0 240 2360 0 2360 0 0 -240 0 -240 -976 0 -976 0 -29 -29 c-58
-58 -29 -151 52 -166 19 -3 492 -4 1052 -3 l1019 3 29 33 29 32 0 366 c0 389
-2 408 -49 434 -11 6 -92 10 -190 10 l-171 0 0 770 0 770 105 0 105 0 0 -91
c0 -90 0 -91 34 -125 25 -24 43 -34 66 -34 23 0 41 10 66 34 l34 34 0 276 c0
220 -3 283 -14 305 -35 66 -137 66 -172 0 -9 -18 -14 -59 -14 -114 l0 -85
-105 0 -105 0 0 96 c0 92 -1 97 -29 125 l-29 29 -577 0 c-349 0 -583 -4 -594
-10 -17 -9 -92 -94 -204 -233 -65 -80 -65 -114 0 -194 112 -139 187 -224 204
-233 10 -6 122 -10 253 -10 l236 0 -102 -205 -103 -205 -1412 0 -1413 0 0 125
0 125 290 0 c316 0 334 3 358 55 8 17 12 83 12 184 l0 159 60 4 c69 5 106 31
116 84 13 68 -35 113 -118 114 l-58 0 0 163 c0 181 -6 202 -60 229 -31 16 -68
18 -317 18 l-281 0 -4 100 c-3 93 -5 101 -31 127 l-27 28 -398 2 c-218 1 -407
-2 -418 -7z m676 -1300 l0 -1110 -270 0 -270 0 0 1110 0 1110 270 0 270 0 0
-1110z m660 545 l0 -305 -230 0 -230 0 0 305 0 305 230 0 230 0 0 -305z m2320
-5 l0 -140 -74 0 -74 0 -57 70 c-51 62 -56 72 -44 88 8 9 33 41 58 70 l43 52
74 0 74 0 0 -140z m790 -305 l0 -445 -255 0 c-151 0 -255 4 -255 9 0 5 52 114
115 242 63 128 115 243 115 256 0 36 -25 78 -55 91 -15 7 -73 12 -140 12
l-115 0 0 140 0 140 295 0 295 0 0 -445z m0 -770 l0 -125 -1785 0 -1785 0 0
125 0 125 1785 0 1785 0 0 -125z m0 -450 l0 -125 -1785 0 -1785 0 0 125 0 125
1785 0 1785 0 0 -125z"/>
<path d="M2517 1099 c-28 -16 -49 -68 -43 -104 13 -70 96 -102 153 -58 52 38
55 101 8 149 -26 26 -84 32 -118 13z"/>
</g>
</svg>
