<?xml version="1.0" standalone="no"?>
<!DOCTYPE svg PUBLIC "-//W3C//DTD SVG 20010904//EN"
 "http://www.w3.org/TR/2001/REC-SVG-20010904/DTD/svg10.dtd">
<svg version="1.0" xmlns="http://www.w3.org/2000/svg"
 width="512.000000pt" height="512.000000pt" viewBox="0 0 512.000000 512.000000"
 preserveAspectRatio="xMidYMid meet">

<g transform="translate(0.000000,512.000000) scale(0.100000,-0.100000)"
fill="#000000" stroke="none">
<path d="M1331 3956 c-609 -609 -614 -614 -607 -648 3 -18 16 -41 27 -50 51
-43 37 -55 664 572 l590 590 565 0 565 0 -875 -875 -875 -875 -565 0 -565 0
183 183 c161 161 182 186 182 215 0 42 -30 72 -72 72 -29 0 -60 -27 -290 -258
l-258 -257 0 -422 c0 -399 1 -422 19 -444 18 -22 27 -24 141 -27 l122 -4 -141
-142 -141 -143 0 -422 0 -422 25 -24 24 -25 269 0 c257 0 270 1 296 21 34 27
36 79 4 109 -20 18 -35 20 -192 20 l-171 0 320 320 320 320 222 0 223 0 0
-320 0 -320 -221 0 c-136 0 -228 -4 -240 -11 -48 -25 -44 -105 7 -128 40 -18
527 -15 562 3 15 8 83 71 152 141 l125 125 5 -119 c4 -98 8 -124 23 -138 17
-17 62 -18 719 -21 l702 -2 293 292 c315 315 316 316 272 372 -14 18 -30 26
-52 26 -28 0 -58 -26 -249 -217 l-218 -218 0 290 0 290 875 875 875 875 0
-290 0 -290 -555 -555 c-493 -493 -555 -558 -555 -586 0 -39 36 -74 76 -74 25
0 106 77 606 578 l578 577 0 421 c0 400 -1 423 -19 445 -18 22 -27 24 -141 27
l-122 4 141 142 141 143 0 422 0 422 -25 25 -24 24 -701 -2 -700 -3 -140 -140
-140 -140 0 108 c0 112 -12 158 -45 171 -9 3 -328 6 -708 6 l-692 0 -614 -614z
m2659 -411 l-875 -875 -564 0 -564 0 350 344 c192 190 357 359 365 377 18 37
8 83 -22 99 -55 30 -53 31 -498 -412 -233 -233 -430 -435 -438 -450 -11 -21
-14 -71 -14 -210 l0 -183 -120 -120 -120 -120 0 285 0 285 875 875 875 875 0
-90 0 -90 -201 -200 c-110 -110 -207 -212 -215 -227 -28 -53 8 -108 71 -108
26 0 78 48 435 410 l405 410 565 0 565 0 -875 -875z m105 -685 l-875 -875 0
290 0 290 873 873 872 872 3 -287 2 -288 -875 -875z m-105 -495 l-875 -875
-560 0 -560 0 120 120 119 119 473 3 473 3 752 753 753 752 90 0 90 0 -875
-875z m-3320 147 c0 -4 -117 -124 -260 -267 l-260 -260 0 268 0 267 260 0
c143 0 260 -3 260 -8z m670 -312 l0 -320 -542 0 -543 0 320 320 320 320 222 0
223 0 0 -320z m1070 317 c0 -1 -119 -121 -265 -267 l-265 -265 0 268 0 267
265 0 c146 0 265 -1 265 -3z m660 -317 l0 -320 -542 0 -543 0 320 320 320 320
222 0 223 0 0 -320z m-1512 -537 l-173 -173 -565 0 -565 0 120 120 120 120
463 0 c382 0 468 2 490 14 15 8 83 71 152 141 l125 125 3 -87 3 -87 -173 -173z
m325 -65 c-72 -73 -136 -143 -142 -155 -7 -13 -11 -91 -11 -205 l0 -183 -120
-120 -120 -120 0 285 0 285 172 172 173 173 90 0 90 0 -132 -132z m-1213 -266
c0 -4 -117 -124 -260 -267 l-260 -260 0 268 0 267 260 0 c143 0 260 -3 260 -8z
m1740 5 c0 -1 -119 -121 -265 -267 l-265 -265 0 268 0 267 265 0 c146 0 265
-1 265 -3z m660 -317 l0 -320 -542 0 -543 0 320 320 320 320 222 0 223 0 0
-320z"/>
</g>
</svg>
