<?xml version="1.0" standalone="no"?>
<!DOCTYPE svg PUBLIC "-//W3C//DTD SVG 20010904//EN"
 "http://www.w3.org/TR/2001/REC-SVG-20010904/DTD/svg10.dtd">
<svg version="1.0" xmlns="http://www.w3.org/2000/svg"
 width="512.000000pt" height="512.000000pt" viewBox="0 0 512.000000 512.000000"
 preserveAspectRatio="xMidYMid meet">

<g transform="translate(0.000000,512.000000) scale(0.100000,-0.100000)"
fill="#000000" stroke="none">
<path d="M1245 5104 c-226 -48 -420 -218 -508 -446 l-32 -83 0 -1610 0 -1610
22 -101 c128 -578 500 -1008 1054 -1219 l91 -35 689 0 690 0 117 46 c533 210
899 641 1024 1207 l23 102 0 1610 0 1610 -32 83 c-89 230 -285 400 -515 446
-113 23 -2515 22 -2623 0z m2515 -544 l0 -150 -1200 0 -1200 0 0 150 0 150
1200 0 1200 0 0 -150z m280 -1400 l0 -850 -1480 0 -1480 0 0 850 0 850 1480 0
1480 0 0 -850z"/>
<path d="M1380 3160 l0 -550 1180 0 1180 0 0 550 0 550 -1180 0 -1180 0 0
-550z"/>
<path d="M0 3160 l0 -310 200 0 200 0 0 310 0 310 -200 0 -200 0 0 -310z"/>
<path d="M4720 3160 l0 -310 200 0 200 0 0 310 0 310 -200 0 -200 0 0 -310z"/>
</g>
</svg>
